<svg version="1.1" id="Layer_1" xmlns="http://www.w3.org/2000/svg" xmlns:xlink="http://www.w3.org/1999/xlink" x="0px" y="0px"
	 w="100%" viewBox="0 0 1497 241" enable-background="new 0 0 1497 241" xml:space="preserve">
<path fill="#f1592a" opacity="1.000000" stroke="none"
	d="
M1011.907410,166.647751
	C1005.531006,182.153625 999.065674,197.623947 992.840149,213.190155
	C991.271545,217.112305 989.505615,218.881378 984.704346,219.114441
	C977.095398,219.483826 973.172058,217.247910 969.818115,209.971466
	C957.013794,182.191711 943.298706,154.831635 929.912903,127.320122
	C928.898499,125.235184 927.798279,123.191963 926.423096,120.516945
	C921.192871,131.103958 916.174194,141.180664 911.227539,151.292603
	C900.777344,172.654663 890.426270,194.065826 879.814331,215.347031
	C879.010925,216.958328 876.509888,218.608292 874.719360,218.699707
	C862.377319,219.329865 862.372131,219.197449 857.625061,207.474091
	C834.043152,149.236710 810.459106,91.000153 786.883362,32.760281
	C786.094238,30.810970 785.384888,28.829369 784.370239,26.156330
	C788.769775,26.156330 792.377136,26.156454 795.984497,26.156305
	C808.315125,26.155798 820.654236,26.419743 832.972168,26.024113
	C837.882935,25.866392 840.175354,27.253660 841.971619,31.983446
	C852.002869,58.396961 862.440186,84.656258 872.742371,110.966850
	C873.286438,112.356361 873.864014,113.732735 874.878784,116.229019
	C876.099243,113.827873 876.993103,112.201889 877.769714,110.521706
	C890.604492,82.754028 903.488464,55.008701 916.165222,27.168970
	C917.721375,23.751518 919.732727,23.146301 923.244568,22.639605
	C931.988403,21.378002 935.853394,25.137175 939.255432,32.931187
	C950.759583,59.287167 963.160461,85.251793 975.227783,111.361786
	C975.913818,112.846329 976.682007,114.292900 977.758728,116.452538
	C982.704285,103.805206 987.410645,91.754196 992.128662,79.707802
	C998.615173,63.146267 1005.132874,46.596909 1011.576050,30.018530
	C1012.461060,27.741495 1013.168457,26.038877 1016.307983,26.073015
	C1032.635864,26.250557 1048.966675,26.142168 1065.296265,26.193930
	C1066.151733,26.196640 1067.005493,26.754297 1067.680420,27.573380
	C1067.268921,28.337301 1067.037109,28.581434 1066.437256,28.864960
	C1064.209717,29.610750 1062.330322,30.269653 1060.493164,31.030478
	C1008.651917,52.500389 985.582153,115.956375 1011.750732,165.593719
	C1011.842651,166.178558 1011.875061,166.413147 1011.907410,166.647751
z"/>
<path fill="#00adef" opacity="1.000000" stroke="none"
	d="
M181.379211,204.601059
	C137.595184,231.883255 77.885689,224.750961 43.927067,188.182419
	C3.653162,144.813263 10.927115,75.938156 58.810551,41.097580
	C92.634468,16.486889 147.814301,14.473709 181.677567,39.365479
	C182.032883,39.704582 182.179382,40.126339 182.124817,40.580971
	C182.125519,55.345264 182.180771,69.654922 182.166229,84.194992
	C182.096436,84.425400 182.006180,84.898369 181.678955,84.998413
	C177.792816,88.091461 174.233932,91.084473 170.728653,94.032394
	C170.241196,93.714806 169.915619,93.582085 169.701340,93.347641
	C169.140717,92.734283 168.607452,92.092865 168.100494,91.433983
	C154.767609,74.105209 137.217911,66.077431 115.414215,68.077515
	C94.805626,69.967972 80.280533,80.383278 72.940918,99.997559
	C69.314362,109.689117 69.016907,119.786201 69.970291,130.014206
	C71.902382,150.741821 86.173019,168.276245 106.186882,173.746490
	C118.464531,177.102234 131.067810,177.526886 143.138763,173.557816
	C150.069305,171.278976 156.357666,166.867645 162.694092,163.019409
	C167.562225,160.062881 167.570068,155.330933 166.166214,149.942078
	C151.435028,149.942078 136.865646,149.942078 122.291397,149.942078
	C122.291397,135.379990 122.291397,121.302254 122.291397,106.911530
	C142.368011,106.911530 162.157043,106.911530 181.976791,107.385086
	C182.014450,120.854271 181.994995,133.849991 182.034607,146.845535
	C182.092484,165.833054 182.192780,184.820435 182.086975,203.906006
	C181.608276,204.101181 181.435028,204.300156 181.379211,204.601059
z"/>
<path fill="#ed008c" opacity="1.000000" stroke="none"
	d="
M632.022400,28.531826
	C666.348022,15.146064 715.279480,19.656721 747.471069,52.674385
	C780.753113,86.810493 785.155090,142.044357 755.999756,179.769745
	C732.107117,210.685532 699.819336,223.434845 661.232117,220.520096
	C630.467590,218.196228 605.749329,204.321503 586.417480,179.641876
	C586.027222,178.776703 585.972900,178.374573 585.958557,177.509369
	C585.998535,142.871826 585.998535,108.697350 585.998535,74.024117
	C605.878601,74.024117 624.971008,74.024117 643.931030,74.336205
	C625.815613,85.931084 618.573669,102.741814 619.204285,123.329742
	C619.851624,144.463898 628.355042,161.443985 648.439026,169.894882
	C669.066040,178.574265 689.322449,176.845200 706.799316,161.705414
	C721.703125,148.794678 725.051758,131.571014 723.122864,112.721283
	C720.892700,90.926689 704.343201,72.840370 682.840881,68.876457
	C669.300110,66.380249 656.412903,68.316322 643.944580,73.608658
	C643.880615,58.606277 643.880615,44.074093 643.880615,29.247889
	C639.514099,28.984215 635.768250,28.758020 632.022400,28.531826
z"/>
<path fill="#00adef" opacity="1.000000" stroke="none"
	d="
M1066.805298,28.825573
	C1067.037109,28.581434 1067.268921,28.337301 1067.729736,27.981594
	C1086.103394,22.582874 1104.527710,21.203131 1123.167358,24.423080
	C1146.466309,28.447918 1165.749146,39.815033 1182.104614,57.660484
	C1182.673950,58.341721 1182.769043,58.532021 1182.637207,59.063694
	C1182.370117,99.732323 1182.326660,140.059586 1182.313354,180.386856
	C1182.313110,181.179092 1182.667969,181.971466 1182.758301,182.999985
	C1182.580200,183.387329 1182.500854,183.538483 1182.421509,183.689651
	C1166.928955,200.624451 1148.351440,212.458603 1125.611206,216.714813
	C1079.659546,225.315414 1036.714233,208.733902 1012.150269,166.918060
	C1011.875061,166.413147 1011.842651,166.178558 1011.906860,165.321701
	C1016.101868,154.531158 1020.198059,144.361984 1024.299194,134.194778
	C1038.466919,99.071350 1052.636353,63.948578 1066.805298,28.825573
M1131.472534,75.949226
	C1115.627075,66.579567 1098.958984,65.717880 1082.081665,72.190521
	C1062.132568,79.841232 1051.031860,99.411690 1051.910400,123.664154
	C1053.488037,167.213196 1094.840942,182.397415 1126.392822,168.397171
	C1162.702148,152.285873 1163.750122,96.081230 1131.472534,75.949226
z"/>
<path fill="#8cc63e" opacity="1.000000" stroke="none"
	d="
M1301.158203,41.166050
	C1301.158203,37.526749 1301.158203,33.887447 1301.158203,29.841980
	C1317.999268,29.841980 1334.215942,29.841980 1350.804688,29.841980
	C1350.804688,57.632633 1350.804688,85.391182 1350.804688,114.572296
	C1352.667358,112.241753 1353.773071,110.960861 1354.767456,109.598854
	C1373.423950,84.045349 1392.113281,58.515495 1410.643311,32.870594
	C1412.541504,30.243570 1414.463379,29.332006 1417.631592,29.360029
	C1434.925293,29.512993 1452.221069,29.432835 1470.868042,29.432835
	C1448.773071,60.026649 1427.322998,89.727676 1405.711914,119.651566
	C1430.773682,152.515396 1455.754395,185.272858 1481.356567,218.845230
	C1464.446167,218.845230 1448.660522,218.419922 1432.914795,219.029099
	C1425.323120,219.322800 1420.690063,217.012527 1416.099243,210.803818
	C1395.901123,183.487564 1375.067261,156.641235 1354.457153,129.629776
	C1353.594849,128.499573 1352.665161,127.420647 1351.001465,125.377945
	C1351.001465,128.081085 1351.001465,129.663071 1351.001465,131.245056
	C1351.001587,158.744217 1351.019287,186.243423 1350.959229,213.742447
	C1350.955566,215.423264 1350.335815,217.102722 1349.478149,218.443878
	C1344.472168,211.701569 1340.039551,205.263535 1335.500244,198.901611
	C1324.108643,182.936020 1312.668823,167.004974 1301.141479,150.669785
	C1301.090820,149.207855 1301.146973,148.136215 1301.534912,147.008362
	C1338.397949,125.954361 1339.788086,64.959747 1301.469971,41.930111
	C1301.280273,41.512833 1301.219238,41.339439 1301.158203,41.166050
z"/>
<path fill="#ed1d24" opacity="1.000000" stroke="none"
	d="
M1301.203125,147.064590
	C1301.146973,148.136215 1301.090820,149.207855 1301.106323,151.126343
	C1301.202393,174.195221 1301.226685,196.417267 1301.250977,218.639297
	C1296.861084,219.655670 1294.016235,218.109070 1291.327637,214.301727
	C1279.350220,197.340103 1266.947876,180.679077 1254.872681,163.785385
	C1252.900635,161.026596 1250.827515,159.913956 1247.480957,160.096237
	C1242.536255,160.365570 1237.565918,160.165848 1232.176514,160.165848
	C1232.176514,179.738342 1232.176514,198.952438 1232.176514,218.502121
	C1215.540283,218.502121 1199.338257,218.502121 1182.441284,218.502121
	C1182.441284,207.231308 1182.441284,195.970078 1182.431396,184.199249
	C1182.500854,183.538483 1182.580200,183.387329 1182.970703,182.831329
	C1212.370972,149.986038 1213.260986,92.073441 1182.864014,58.722321
	C1182.769043,58.532021 1182.673950,58.341721 1182.387695,57.898113
	C1182.196777,48.528236 1182.196777,39.411663 1182.196777,29.843538
	C1184.130127,29.689550 1185.550293,29.472958 1186.969604,29.478777
	C1211.882080,29.580906 1236.795288,29.615465 1261.706299,29.870871
	C1275.583618,30.013155 1288.556885,33.683838 1300.812744,41.037682
	C1301.219238,41.339439 1301.280273,41.512833 1301.306641,42.351891
	C1301.249146,77.699898 1301.226074,112.382248 1301.203125,147.064590
	M1260.848389,116.775787
	C1261.821655,116.555527 1262.801758,116.361343 1263.767212,116.110954
	C1273.937744,113.473274 1279.644897,105.474174 1279.459473,94.131218
	C1279.283936,83.389297 1273.560791,74.955772 1263.384033,73.770363
	C1253.139526,72.577049 1242.647583,73.507721 1232.291748,73.507721
	C1232.291748,87.918114 1232.291748,102.312828 1232.291748,116.842247
	C1241.708374,116.842247 1250.834717,116.842247 1260.848389,116.775787
z"/>
<path fill="#77B79D" opacity="1.000000" stroke="none"
	d="
M182.179382,40.126339
	C182.179382,40.126339 182.032883,39.704582 182.010864,39.482525
	C181.988831,35.979538 181.988831,32.698608 181.988831,28.764534
	C214.479263,28.764534 246.304611,28.764534 278.647400,29.326515
	C279.174286,44.520565 279.183746,59.152637 279.193237,73.784706
	C264.051849,73.784706 248.910461,73.784706 233.324265,73.784706
	C233.324265,82.605057 233.324265,90.975052 233.324265,99.991371
	C252.632782,99.991371 272.007446,99.991371 291.685059,99.991371
	C291.685059,114.199211 291.685059,127.770874 291.685059,141.987061
	C272.284790,141.987061 252.914474,141.987061 233.216370,141.987061
	C233.216370,153.366577 233.216370,164.110291 233.216370,175.713196
	C235.135818,175.713196 237.048355,175.713242 238.960876,175.713196
	C263.778625,175.712753 288.597778,175.849182 313.412933,175.595917
	C318.357391,175.545456 319.513336,177.089066 319.396698,181.790894
	C319.079041,194.596161 319.287506,207.414505 319.287506,220.611725
	C273.584961,220.611725 228.211838,220.611725 181.839493,220.611725
	C181.839493,215.531952 181.839493,210.443451 181.609344,204.977997
	C181.435028,204.300156 181.608276,204.101181 182.402710,203.898941
	C192.975769,197.481705 201.682007,189.645660 209.058929,180.336212
	C214.416092,173.575638 217.763062,166.515274 217.234344,157.222351
	C216.376068,142.136810 217.011688,126.966759 216.991272,111.832420
	C216.988892,110.076691 216.825226,108.321182 216.715652,106.156868
	C204.917755,106.156868 193.638062,106.156868 182.275177,105.685699
	C182.130081,98.442482 182.068130,91.670425 182.006180,84.898369
	C182.006180,84.898369 182.096436,84.425400 182.482330,84.149445
	C189.856689,78.040298 196.887192,72.255676 203.769958,66.300301
	C204.473892,65.691231 204.896515,63.646088 204.430328,62.963768
	C198.353180,54.068855 191.667892,45.715714 182.179382,40.126339
z"/>
<path fill="#303393" opacity="1.000000" stroke="none"
	d="
M316.107544,28.261669
	C354.742188,28.325872 393.376862,28.390694 432.011505,28.453371
	C436.149994,28.460085 440.288452,28.454275 444.709747,28.454275
	C444.709747,43.732277 444.709747,58.613750 444.709747,73.999298
	C425.738129,73.999298 406.843292,73.999298 387.477600,73.999298
	C387.477600,123.218140 387.477600,171.937149 387.477600,220.801849
	C370.570618,220.801849 354.143585,220.801849 337.236084,220.801849
	C337.236084,171.903992 337.236084,123.203720 337.236084,73.982162
	C330.150146,73.982162 323.536346,73.982162 316.460785,73.451569
	C315.998230,58.305153 315.997467,43.689327 316.042114,28.872961
	C316.087555,28.672422 316.107544,28.261669 316.107544,28.261669
z"/>
<path fill="#8CC63E" opacity="1.000000" stroke="none"
	d="
M585.918579,177.972443
	C585.972900,178.374573 586.027222,178.776703 586.119385,179.480560
	C586.157227,193.259171 586.157227,206.736053 586.157227,220.605148
	C569.278198,220.605148 552.754395,220.605148 535.639038,220.605148
	C535.639038,171.829102 535.639038,123.143188 535.639038,74.115173
	C516.289368,74.115173 497.522827,74.115173 478.380157,74.115173
	C478.380157,58.913074 478.380157,44.053642 478.380157,28.728830
	C528.748901,28.728830 578.981873,28.728830 629.460083,29.147530
	C618.266846,34.426907 607.978149,41.083183 598.926453,49.585659
	C581.550659,65.907257 571.137085,85.665886 568.710632,109.632385
	C566.184937,134.580612 570.917786,157.524307 585.918579,177.972443
z"/>
<path fill="#962f33" opacity="1.000000" stroke="none"
	d="
M585.958496,177.509369
	C570.917786,157.524307 566.184937,134.580612 568.710632,109.632385
	C571.137085,85.665886 581.550659,65.907257 598.926453,49.585659
	C607.978149,41.083183 618.266846,34.426907 629.923645,29.276752
	C630.554993,28.872829 630.968018,28.758383 631.701782,28.587881
	C635.768250,28.758020 639.514099,28.984215 643.880615,29.247889
	C643.880615,44.074093 643.880615,58.606277 643.938416,73.574905
	C643.996216,74.011353 644.063416,74.024117 644.063416,74.024117
	C624.971008,74.024117 605.878601,74.024117 585.998535,74.024117
	C585.998535,108.697350 585.998535,142.871826 585.958496,177.509369
z"/>
<path fill="#6b3238" opacity="1.000000" stroke="none"
	d="
M1301.683838,218.746735
	C1301.226685,196.417267 1301.202393,174.195221 1301.213135,151.516632
	C1312.668823,167.004974 1324.108643,182.936020 1335.500244,198.901611
	C1340.039551,205.263535 1344.472168,211.701569 1349.072266,218.424545
	C1333.499390,218.780823 1317.807983,218.817505 1301.683838,218.746735
z"/>
<path fill="#34346a" opacity="1.000000" stroke="none"
	d="
M315.996674,29.073502
	C315.997467,43.689327 315.998230,58.305153 315.996857,73.379028
	C304.026123,73.871170 292.057556,73.905251 279.641113,73.862022
	C279.183746,59.152637 279.174286,44.520565 279.113373,29.415798
	C279.402130,28.778160 279.742371,28.613218 280.823029,28.622414
	C293.041199,28.888866 304.518951,28.981184 315.996674,29.073502
z"/>
<path fill="#264f41" opacity="1.000000" stroke="none"
	d="
M1066.437256,28.864964
	C1052.636353,63.948578 1038.466919,99.071350 1024.299194,134.194778
	C1020.198059,144.361984 1016.101868,154.531158 1011.847351,164.971466
	C985.582153,115.956375 1008.651917,52.500389 1060.493164,31.030478
	C1062.330322,30.269653 1064.209717,29.610750 1066.437256,28.864964
z"/>
<path fill="#009d9e" opacity="1.000000" stroke="none"
	d="
M181.976791,107.385086
	C181.946091,106.911530 182.122055,106.517822 182.240204,106.337341
	C193.638062,106.156868 204.917755,106.156868 216.715652,106.156868
	C216.825226,108.321182 216.988892,110.076691 216.991272,111.832420
	C217.011688,126.966759 216.376068,142.136810 217.234344,157.222351
	C217.763062,166.515274 214.416092,173.575638 209.058929,180.336212
	C201.682007,189.645660 192.975769,197.481705 182.590729,203.800812
	C182.192780,184.820435 182.092484,165.833054 182.034607,146.845535
	C181.994995,133.849991 182.014450,120.854271 181.976791,107.385086
z"/>
<path fill="#009d9e" opacity="1.000000" stroke="none"
	d="
M182.124817,40.580971
	C191.667892,45.715714 198.353180,54.068855 204.430328,62.963768
	C204.896515,63.646088 204.473892,65.691231 203.769958,66.300301
	C196.887192,72.255676 189.856689,78.040298 182.552124,83.919037
	C182.180771,69.654922 182.125519,55.345264 182.124817,40.580971
z"/>
<path fill="#36353a" opacity="1.000000" stroke="none"
	d="
M1182.637207,59.063694
	C1213.260986,92.073441 1212.370972,149.986038 1183.069580,182.595123
	C1182.667969,181.971466 1182.313110,181.179092 1182.313354,180.386856
	C1182.326660,140.059586 1182.370117,99.732323 1182.637207,59.063694
z"/>
<path fill="#6b3238" opacity="1.000000" stroke="none"
	d="
M1301.534912,147.008362
	C1301.226074,112.382248 1301.249146,77.699898 1301.435425,42.595776
	C1339.788086,64.959747 1338.397949,125.954361 1301.534912,147.008362
z"/>
</svg>
