<?xml version="1.0" encoding="UTF-8"?>
<svg width="986px" height="167px" viewBox="0 0 986 167" version="1.1" xmlns="http://www.w3.org/2000/svg" xmlns:xlink="http://www.w3.org/1999/xlink">
    <!-- Generator: Sketch 52.6 (67491) - http://www.bohemiancoding.com/sketch -->
    <title>Group</title>
    <desc>Created with Sketch.</desc>
    <defs>
        <polygon id="path-1" points="0.06 0.992 178.906 0.992 178.906 145.941 0.06 145.941"></polygon>
    </defs>
    <g id="Page-1" stroke="none" stroke-width="1" fill="none" fill-rule="evenodd">
        <g id="Group">
            <g id="Group-3" transform="translate(0.000000, 2.000000)">
                <mask id="mask-2" fill="white">
                    <use xlink:href="#path-1"></use>
                </mask>
                <g id="Clip-2"></g>
                <path d="M96.11,30.421 C102.551,30.421 107.383,31.704 110.604,34.264 C113.824,36.827 115.436,40.671 115.436,45.795 C115.436,50.921 113.824,54.798 110.604,57.434 C107.383,60.07 102.551,61.387 96.11,61.387 L56.003,61.387 L56.003,30.421 L96.11,30.421 Z M169.902,115.852 C168.728,106.336 165.763,94.808 161.008,89.17 C156.248,83.535 149.917,79.506 142.01,77.091 C134.104,74.673 124.441,73.332 113.02,73.332 L106.752,73.332 C127.156,72.685 142.757,69.621 153.54,64.132 C165.763,57.91 172.837,48.469 171.879,35.912 C171.879,25.683 165.546,17.764 154.748,10.984 C143.553,3.953 126.709,0.992 104.895,0.992 L0,0.992 L0,145.941 L56.003,145.941 L56.003,85.545 L90.4,85.545 C95.671,85.545 99.953,86.133 103.248,87.301 C106.542,88.477 109.067,90.304 110.824,92.792 C112.581,95.284 113.346,98.728 114.338,102.896 C115.943,109.636 118.582,141.696 120.048,145.941 L178.906,145.941 C176.563,141.988 174.659,137.452 173.196,132.324 C171.731,127.2 170.633,121.709 169.902,115.852 Z" id="Fill-1" fill="#0A0B09" mask="url(#mask-2)"></path>
            </g>
            <polygon id="Fill-4" fill="#0A0B09" points="191 147.949 247.003 147.949 247.003 3 191 3"></polygon>
            <polyline id="Fill-5" fill="#0A0B09" points="509.003 48.462 605.197 48.462 605.197 3 453 3 453 147.949 605.197 147.949 605.197 102.488 509.003 102.488 509.003 87.554 591.361 87.554 591.361 63.396 509.003 63.396 509.003 48.462"></polyline>
            <path d="M323.897,103.552 C330.557,107.432 340.111,109.371 352.557,109.371 C362.66,109.371 369.908,108.822 374.3,107.723 C378.693,106.625 380.889,104.835 380.889,102.345 C380.889,100.586 379.863,99.16 377.813,98.062 C375.762,96.963 372.065,95.975 366.723,95.095 C361.376,94.218 353.14,93.268 342.016,92.241 C323.42,90.484 308.595,87.887 297.543,84.445 C286.487,81.007 278.47,76.393 273.494,70.609 C268.515,64.827 266.027,57.468 266.027,48.538 C266.027,38.73 269.321,30.164 275.91,22.842 C282.498,15.522 291.867,9.883 304.022,5.931 C316.173,1.978 330.376,0 346.628,0 C368.15,0 386.671,3.295 402.191,9.883 C417.709,16.472 428.618,25.623 434.914,37.336 L378.754,53.478 C376.908,50.727 374.435,48.384 371.335,46.451 C365.11,42.573 356.874,40.63 346.628,40.63 C338.573,40.63 332.496,41.288 328.399,42.607 C324.298,43.924 322.25,45.902 322.25,48.538 C322.25,50.15 323.31,51.502 325.435,52.6 C327.555,53.698 331.144,54.687 336.196,55.564 C341.247,56.443 348.384,57.322 357.609,58.2 C377.518,60.104 393.187,62.74 404.607,66.107 C416.028,69.477 424.298,74.051 429.424,79.833 C434.548,85.618 437.111,93.12 437.111,102.345 C437.111,112.302 433.779,120.866 427.118,128.038 C420.455,135.215 410.791,140.666 398.128,144.4 C385.462,148.134 370.271,150 352.557,150 C328.69,150 308.633,146.635 292.381,139.899 C276.13,133.166 265.001,123.575 259,111.129 L315.009,94.955 C317.161,98.49 320.124,101.356 323.897,103.552" id="Fill-6" fill="#0A0B09"></path>
            <polyline id="Fill-7" fill="#0A0B09" points="635.08 65.933 640.95 65.572 643.388 64.217 643.388 5.522 631.107 4.438 621.896 22.137 620 22.137 622.709 2.452 622.709 2 624.154 2 628.398 2.632 667.227 2.632 671.471 2 672.826 2 672.826 2.452 675.535 22.137 673.729 22.137 664.428 4.438 652.237 5.522 652.237 64.217 654.585 65.572 660.455 65.933 660.455 67.649 635.08 67.649 635.08 65.933"></polyline>
            <path d="M682,66.739 L686.334,66.378 L688.14,65.023 L688.14,5.967 L682,4.702 L682,3.167 L694.46,1 L695.815,1 L695.815,34.321 L696.176,33.509 C699.789,25.652 704.484,22.221 710.354,22.221 C718.12,22.221 722.725,27.91 722.725,37.662 L722.725,65.023 L724.441,66.378 L728.415,66.739 L728.415,68.455 L709,68.455 L709,66.739 L713.244,66.378 L715.049,65.023 L715.049,38.655 C715.049,31.793 712.07,27.819 706.742,27.819 C703.491,27.819 700.511,29.716 697.622,34.411 L695.815,37.572 L695.815,65.023 L697.711,66.378 L702.317,66.739 L702.317,68.455 L682,68.455 L682,66.739" id="Fill-8" fill="#0A0B09"></path>
            <path d="M759.902,40.422 C760.444,30.669 756.561,24.709 750.42,24.709 C744.46,24.709 740.036,30.76 739.404,40.422 L759.902,40.422 Z M732,46.743 C732,32.294 740.668,22 752.317,22 C762.251,22 769.204,29.405 768.571,43.492 L739.314,43.492 C739.495,55.863 745.364,64.261 754.575,64.261 C759.089,64.261 762.972,62.004 766.585,57.488 L768.12,59.024 C764.327,65.255 758.638,69.77 751.143,69.77 C740.307,69.77 732,60.378 732,46.743 Z" id="Fill-9" fill="#0A0B09"></path>
            <path d="M789.357,64.261 C794.233,64.261 798.839,60.108 801.007,54.237 L801.007,43.221 L791.976,46.563 C785.745,48.819 782.495,52.702 782.495,57.218 C782.495,61.462 785.385,64.261 789.357,64.261 Z M808.681,64.713 L810.217,65.796 L814.371,66.338 L814.371,67.873 L802.542,68.686 L801.007,68.686 L801.187,63.629 L801.458,57.85 L801.007,57.85 C798.026,64.713 792.698,69.318 786.016,69.318 C779.605,69.318 775,65.255 775,58.934 C775,52.793 779.605,47.917 788.183,44.756 L801.007,40.15 L801.007,37.894 C801.007,30.037 798.026,24.619 792.428,24.619 C786.648,24.619 784.029,30.308 785.204,38.164 L776.625,38.164 C776.263,28.683 783.397,22 793.963,22 C803.354,22 808.681,27.599 808.681,36.99 L808.681,64.713 Z" id="Fill-10" fill="#0A0B09"></path>
            <path d="M822.586,58.575 L822.586,25.796 L815,25.796 L815,23.538 L822.405,22.725 L828.545,9 L830.261,9 L830.261,22.364 L840.465,22.183 L842.181,22.183 L842.181,25.796 L830.261,25.796 L830.261,57.762 C830.261,61.645 831.255,63.812 834.234,63.812 C836.401,63.812 838.117,62.368 840.375,60.02 L841.188,59.117 L842.814,60.833 L842.091,61.736 C837.847,66.431 835.138,68.508 830.983,68.508 C825.385,68.508 822.586,64.805 822.586,58.575" id="Fill-11" fill="#0A0B09"></path>
            <path d="M849.632,65.976 L853.515,65.615 L855.14,64.26 L855.14,26.967 L849,25.702 L849,24.167 L861.461,22 L862.816,22 L862.365,29.856 L862.003,35.816 L862.545,35.816 L863.99,32.023 C866.79,24.979 871.124,22 876.813,22 L879.612,22 L879.612,29.856 L874.736,29.856 C869.95,29.856 867.241,31.12 864.802,35.274 L862.816,39.338 L862.816,64.26 L865.886,65.615 L873.201,65.976 L873.201,67.692 L849.632,67.692 L849.632,65.976" id="Fill-12" fill="#0A0B09"></path>
            <path d="M909.903,40.422 C910.444,30.669 906.562,24.709 900.421,24.709 C894.461,24.709 890.036,30.76 889.404,40.422 L909.903,40.422 Z M882,46.743 C882,32.294 890.669,22 902.318,22 C912.251,22 919.204,29.405 918.571,43.492 L889.315,43.492 C889.495,55.863 895.364,64.261 904.575,64.261 C909.09,64.261 912.973,62.004 916.585,57.488 L918.12,59.024 C914.327,65.255 908.639,69.77 901.144,69.77 C890.308,69.77 882,60.378 882,46.743 Z" id="Fill-13" fill="#0A0B09"></path>
            <path d="M648.451,145.489 C664.073,145.489 672.742,133.931 672.742,116.773 C672.742,98.532 663.441,85.529 648,85.529 L636.622,85.529 L636.622,145.489 L648.451,145.489 Z M621,146.302 L625.785,145.94 L627.772,144.586 L627.772,86.432 L625.785,85.077 L621,84.716 L621,83 L650.709,83 C669.853,83 681.953,95.823 681.953,114.696 C681.953,134.201 669.582,148.018 649.987,148.018 L621,148.018 L621,146.302 Z" id="Fill-14" fill="#0A0B09"></path>
            <path d="M691.16,88.508 C691.16,85.438 693.597,83 696.668,83 C699.648,83 702.086,85.438 702.086,88.508 C702.086,91.579 699.648,94.017 696.668,94.017 C693.597,94.017 691.16,91.579 691.16,88.508 Z M688,146.121 L692.334,145.759 L694.14,144.405 L694.14,107.111 L688,105.846 L688,104.311 L700.461,102.144 L701.816,102.144 L701.816,144.405 L703.621,145.759 L707.956,146.121 L707.956,147.837 L688,147.837 L688,146.121 Z" id="Fill-15" fill="#0A0B09"></path>
            <path d="M712.633,145.977 L716.515,145.615 L718.14,144.261 L718.14,106.967 L712,105.702 L712,104.167 L724.462,102 L725.816,102 L725.365,109.857 L725.004,115.817 L725.546,115.817 L726.99,112.024 C729.79,104.98 734.125,102 739.813,102 L742.613,102 L742.613,109.857 L737.736,109.857 C732.951,109.857 730.241,111.12 727.803,115.275 L725.816,119.338 L725.816,144.261 L728.887,145.615 L736.201,145.977 L736.201,147.693 L712.633,147.693 L712.633,145.977" id="Fill-16" fill="#0A0B09"></path>
            <path d="M773.904,120.421 C774.445,110.668 770.562,104.709 764.421,104.709 C758.462,104.709 754.037,110.759 753.406,120.421 L773.904,120.421 Z M746,126.743 C746,112.293 754.669,102 766.318,102 C776.251,102 783.205,109.405 782.572,123.492 L753.315,123.492 C753.496,135.863 759.365,144.26 768.576,144.26 C773.091,144.26 776.974,142.003 780.585,137.488 L782.121,139.023 C778.328,145.254 772.639,149.769 765.144,149.769 C754.308,149.769 746,140.377 746,126.743 Z" id="Fill-17" fill="#0A0B09"></path>
            <path d="M788,126.652 C788,112.023 797.662,102 809.039,102 C818.16,102 824.21,108.502 823.849,119.699 L815,119.699 C816.625,110.398 813.374,104.619 807.503,104.619 C800.732,104.619 795.674,113.016 795.674,123.582 C795.674,135.682 801.906,144.351 810.212,144.351 C814.728,144.351 819.244,141.551 822.043,137.126 L823.758,138.572 C819.695,146.428 813.554,149.769 807.052,149.769 C796.126,149.769 788,140.016 788,126.652" id="Fill-18" fill="#0A0B09"></path>
            <path d="M835.585,138.575 L835.585,105.796 L828,105.796 L828,103.538 L835.405,102.726 L841.546,89 L843.261,89 L843.261,102.364 L853.465,102.184 L855.181,102.184 L855.181,105.796 L843.261,105.796 L843.261,137.763 C843.261,141.646 844.255,143.813 847.234,143.813 C849.401,143.813 851.117,142.368 853.374,140.021 L854.187,139.117 L855.813,140.833 L855.091,141.736 C850.847,146.432 848.138,148.509 843.983,148.509 C838.385,148.509 835.585,144.806 835.585,138.575" id="Fill-19" fill="#0A0B09"></path>
            <path d="M881.672,146.969 C888.807,146.969 893.321,139.294 893.321,127.555 C893.321,113.558 888.084,104.709 879.866,104.709 C872.732,104.709 868.308,112.474 868.308,124.124 C868.308,138.21 873.545,146.969 881.672,146.969 Z M860,125.839 C860,111.842 868.669,102 881.221,102 C893.23,102 901.629,111.842 901.629,125.839 C901.629,139.926 892.869,149.769 880.408,149.769 C868.308,149.769 860,139.926 860,125.839 Z" id="Fill-20" fill="#0A0B09"></path>
            <path d="M906.632,145.977 L910.515,145.615 L912.141,144.261 L912.141,106.967 L906,105.702 L906,104.167 L918.462,102 L919.815,102 L919.364,109.857 L919.003,115.817 L919.546,115.817 L920.99,112.024 C923.79,104.98 928.124,102 933.814,102 L936.612,102 L936.612,109.857 L931.735,109.857 C926.95,109.857 924.241,111.12 921.803,115.275 L919.815,119.338 L919.815,144.261 L922.886,145.615 L930.2,145.977 L930.2,147.693 L906.632,147.693 L906.632,145.977" id="Fill-21" fill="#0A0B09"></path>
            <path d="M941.896,159.8 L943.252,159.8 L954.267,160.07 C956.074,158.807 957.699,157.272 959.325,153.027 L961.402,147.609 L944.154,105.981 L940,104.535 L940,103 L960.679,103 L960.679,104.716 L953.184,105.709 L953.184,107.606 L965.013,137.767 L965.646,137.767 L977.295,107.606 L977.295,105.709 L971.244,104.716 L971.244,103 L985.151,103 L985.151,104.535 L981.629,105.981 L964.291,149.686 C959.685,161.154 953.004,166.121 943.252,166.121 L941.896,166.121 L941.896,159.8" id="Fill-22" fill="#0A0B09"></path>
        </g>
    </g>
</svg>