<?xml version="1.0" encoding="UTF-8"?>
<svg width="987px" height="166px" viewBox="0 0 987 166" version="1.1" xmlns="http://www.w3.org/2000/svg" xmlns:xlink="http://www.w3.org/1999/xlink">
    <!-- Generator: Sketch 52.6 (67491) - http://www.bohemiancoding.com/sketch -->
    <title>RISETHEATREDIRECTORY-white logo-050423</title>
    <desc>Created with Sketch.</desc>
    <g id="Page-1" stroke="none" stroke-width="1" fill="none" fill-rule="evenodd">
        <g id="RISETHEATREDIRECTORY-white-logo-050423" fill="#FFFFFF">
            <path d="M170.81,117.81 C169.64,108.29 166.67,96.77 161.92,91.13 C157.16,85.49 150.83,81.47 142.92,79.05 C135.01,76.63 125.35,75.29 113.93,75.29 L107.66,75.29 C128.06,74.64 143.66,71.58 154.45,66.09 C166.67,59.87 173.75,50.43 172.79,37.87 C172.79,27.64 166.46,19.72 155.66,12.94 C144.47,5.91 127.62,2.95 105.81,2.95 L0.92,2.95 L0.92,147.9 L56.92,147.9 L56.92,87.5 L91.32,87.5 C96.59,87.5 100.87,88.09 104.17,89.26 C107.46,90.44 109.99,92.26 111.75,94.75 C113.51,97.24 114.27,100.69 115.26,104.85 C116.87,111.59 119.5,143.65 120.97,147.89 L179.83,147.89 C177.49,143.94 175.58,139.4 174.12,134.27 C172.66,129.15 171.56,123.66 170.83,117.8 L170.81,117.81 Z M97.04,32.37 C103.48,32.37 108.31,33.65 111.53,36.21 C114.75,38.77 116.36,42.62 116.36,47.74 C116.36,52.86 114.75,56.74 111.53,59.38 C108.31,62.02 103.48,63.33 97.04,63.33 L56.93,63.33 L56.93,32.36 L97.04,32.36 L97.04,32.37 Z" id="Shape" fill-rule="nonzero"></path>
            <rect id="Rectangle" x="191.89" y="2.95" width="56" height="144.95"></rect>
            <polygon id="Path" points="510.56 48.41 606.75 48.41 606.75 2.95 454.56 2.95 454.56 147.9 606.75 147.9 606.75 102.44 510.56 102.44 510.56 87.72 510.56 87.5 592.92 87.5 592.92 63.34 510.56 63.34 510.56 63.13"></polygon>
            <path d="M325.21,104 C331.87,107.88 341.42,109.82 353.87,109.82 C363.97,109.82 371.22,109.27 375.61,108.17 C380,107.07 382.2,105.28 382.2,102.79 C382.2,101.03 381.17,99.6 379.12,98.51 C377.07,97.41 373.37,96.42 368.03,95.54 C362.68,94.66 354.45,93.71 343.32,92.69 C324.72,90.93 309.9,88.34 298.85,84.89 C287.79,81.45 279.78,76.84 274.8,71.05 C269.82,65.27 267.33,57.91 267.33,48.98 C267.33,39.17 270.62,30.61 277.21,23.28 C283.8,15.96 293.17,10.32 305.32,6.37 C317.47,2.42 331.67,0.44 347.93,0.44 C369.45,0.44 387.97,3.73 403.49,10.32 C419.01,16.91 429.92,26.06 436.21,37.77 L380.05,53.91 C378.2,51.16 375.73,48.82 372.63,46.88 C366.4,43 358.17,41.06 347.92,41.06 C339.87,41.06 333.79,41.72 329.69,43.04 C325.59,44.36 323.54,46.33 323.54,48.97 C323.54,50.58 324.6,51.93 326.72,53.03 C328.84,54.13 332.43,55.12 337.48,55.99 C342.53,56.87 349.67,57.75 358.89,58.63 C378.8,60.53 394.47,63.17 405.89,66.54 C417.31,69.91 425.58,74.48 430.71,80.27 C435.83,86.06 438.4,93.56 438.4,102.78 C438.4,112.74 435.07,121.3 428.41,128.47 C421.75,135.65 412.08,141.1 399.42,144.83 C386.75,148.56 371.56,150.43 353.85,150.43 C329.98,150.43 309.93,147.06 293.67,140.33 C277.42,133.6 266.29,124.01 260.29,111.56 L316.3,95.39 C318.45,98.93 321.41,101.79 325.19,103.99" id="Path"></path>
            <polygon id="Path" points="636.37 66.24 642.24 65.88 644.68 64.53 644.68 5.83 632.4 4.75 623.19 22.45 621.29 22.45 624 2.76 624 2.31 625.45 2.31 629.69 2.94 668.52 2.94 672.76 2.31 674.11 2.31 674.11 2.76 676.82 22.45 675.01 22.45 665.71 4.75 653.52 5.83 653.52 64.53 655.87 65.88 661.74 66.24 661.74 67.96 636.36 67.96 636.36 66.24"></polygon>
            <path d="M682.88,66.24 L687.21,65.88 L689.02,64.53 L689.02,5.47 L682.88,4.21 L682.88,2.67 L695.34,0.5 L696.69,0.5 L696.69,33.82 L697.05,33.01 C700.66,25.15 705.36,21.72 711.23,21.72 C719,21.72 723.6,27.41 723.6,37.16 L723.6,64.52 L725.32,65.87 L729.29,66.23 L729.29,67.95 L709.87,67.95 L709.87,66.23 L714.11,65.87 L715.92,64.52 L715.92,38.15 C715.92,31.29 712.94,27.31 707.61,27.31 C704.36,27.31 701.38,29.21 698.49,33.9 L696.68,37.06 L696.68,64.51 L698.58,65.86 L703.19,66.22 L703.19,67.94 L682.87,67.94 L682.87,66.22 L682.88,66.24 Z" id="Path"></path>
            <path d="M733.08,46.28 C733.08,31.83 741.75,21.54 753.4,21.54 C763.33,21.54 770.29,28.95 769.65,43.03 L740.39,43.03 C740.57,55.4 746.44,63.8 755.65,63.8 C760.16,63.8 764.05,61.54 767.66,57.03 L769.2,58.57 C765.41,64.8 759.72,69.32 752.22,69.32 C741.38,69.32 733.08,59.93 733.08,46.29 L733.08,46.28 Z M760.98,39.96 C761.52,30.21 757.64,24.25 751.5,24.25 C745.36,24.25 741.12,30.3 740.48,39.96 L760.98,39.96 Z" id="Shape" fill-rule="nonzero"></path>
            <path d="M809.84,64.25 L811.38,65.33 L815.53,65.87 L815.53,67.41 L803.7,68.22 L802.16,68.22 L802.34,63.16 L802.61,57.38 L802.16,57.38 C799.18,64.24 793.85,68.85 787.17,68.85 C780.49,68.85 776.15,64.79 776.15,58.47 C776.15,52.15 780.76,47.45 789.33,44.29 L802.15,39.68 L802.15,37.42 C802.15,29.56 799.17,24.15 793.57,24.15 C787.97,24.15 785.17,29.84 786.35,37.69 L777.77,37.69 C777.41,28.21 784.54,21.53 795.11,21.53 C804.5,21.53 809.83,27.13 809.83,36.52 L809.83,64.24 L809.84,64.25 Z M790.52,63.8 C795.4,63.8 800,59.65 802.17,53.78 L802.17,42.76 L793.14,46.1 C786.91,48.36 783.66,52.24 783.66,56.76 C783.66,61 786.55,63.8 790.52,63.8 Z" id="Shape" fill-rule="nonzero"></path>
            <path d="M824.11,58.93 L824.11,26.15 L816.52,26.15 L816.52,23.89 L823.93,23.08 L830.07,9.35 L831.79,9.35 L831.79,22.71 L841.99,22.53 L843.71,22.53 L843.71,26.14 L831.79,26.14 L831.79,58.11 C831.79,61.99 832.78,64.16 835.76,64.16 C837.93,64.16 839.64,62.72 841.9,60.37 L842.71,59.47 L844.34,61.19 L843.62,62.09 C839.38,66.79 836.67,68.86 832.51,68.86 C826.91,68.86 824.11,65.16 824.11,58.93 Z" id="Path"></path>
            <path d="M850.38,66.24 L854.26,65.88 L855.88,64.53 L855.88,27.24 L849.74,25.98 L849.74,24.44 L862.2,22.27 L863.55,22.27 L863.1,30.13 L862.74,36.09 L863.28,36.09 L864.72,32.3 C867.52,25.26 871.85,22.28 877.54,22.28 L880.34,22.28 L880.34,30.14 L875.46,30.14 C870.67,30.14 867.96,31.4 865.53,35.56 L863.54,39.62 L863.54,64.54 L866.61,65.89 L873.92,66.25 L873.92,67.97 L850.35,67.97 L850.35,66.25 L850.38,66.24 Z" id="Path"></path>
            <path d="M883.43,46.28 C883.43,31.83 892.1,21.54 903.75,21.54 C913.68,21.54 920.64,28.95 920,43.03 L890.74,43.03 C890.92,55.4 896.79,63.8 906,63.8 C910.51,63.8 914.4,61.54 918.01,57.03 L919.55,58.57 C915.76,64.8 910.07,69.32 902.57,69.32 C891.73,69.32 883.43,59.93 883.43,46.29 L883.43,46.28 Z M911.33,39.96 C911.87,30.21 907.99,24.25 901.85,24.25 C895.71,24.25 891.47,30.3 890.83,39.96 L911.33,39.96 Z" id="Shape" fill-rule="nonzero"></path>
            <path d="M621.74,146.18 L626.53,145.82 L628.52,144.47 L628.52,86.32 L626.53,84.97 L621.74,84.61 L621.74,82.89 L651.45,82.89 C670.59,82.89 682.69,95.71 682.69,114.59 C682.69,133.47 670.32,147.91 650.72,147.91 L621.73,147.91 L621.73,146.19 L621.74,146.18 Z M649.19,145.37 C664.81,145.37 673.48,133.81 673.48,116.65 C673.48,98.41 664.18,85.41 648.74,85.41 L637.36,85.41 L637.36,145.37 L649.19,145.37 Z" id="Shape" fill-rule="nonzero"></path>
            <path d="M688.75,146.18 L693.08,145.82 L694.89,144.47 L694.89,107.18 L688.75,105.92 L688.75,104.38 L701.21,102.21 L702.57,102.21 L702.57,144.47 L704.37,145.82 L708.7,146.18 L708.7,147.9 L688.74,147.9 L688.74,146.18 L688.75,146.18 Z M691.91,88.57 C691.91,85.5 694.35,83.06 697.42,83.06 C700.49,83.06 702.84,85.5 702.84,88.57 C702.84,91.64 700.4,94.08 697.42,94.08 C694.44,94.08 691.91,91.64 691.91,88.57 Z" id="Shape" fill-rule="nonzero"></path>
            <path d="M713.58,146.18 L717.46,145.82 L719.08,144.47 L719.08,107.18 L712.94,105.92 L712.94,104.38 L725.4,102.21 L726.75,102.21 L726.3,110.07 L725.94,116.03 L726.48,116.03 L727.92,112.24 C730.72,105.2 735.05,102.22 740.74,102.22 L743.54,102.22 L743.54,110.08 L738.66,110.08 C733.87,110.08 731.16,111.34 728.73,115.5 L726.74,119.56 L726.74,144.48 L729.81,145.83 L737.12,146.19 L737.12,147.91 L713.55,147.91 L713.55,146.19 L713.58,146.18 Z" id="Path"></path>
            <path d="M746.63,126.22 C746.63,111.77 755.3,101.48 766.95,101.48 C776.88,101.48 783.84,108.89 783.2,122.97 L753.94,122.97 C754.12,135.34 759.99,143.74 769.2,143.74 C773.72,143.74 777.6,141.48 781.21,136.97 L782.75,138.51 C778.96,144.74 773.27,149.26 765.77,149.26 C754.93,149.26 746.63,139.87 746.63,126.23 L746.63,126.22 Z M774.53,119.9 C775.07,110.15 771.19,104.19 765.05,104.19 C758.91,104.19 754.67,110.24 754.03,119.9 L774.53,119.9 Z" id="Shape" fill-rule="nonzero"></path>
            <path d="M789.25,126.13 C789.25,111.5 798.91,101.48 810.29,101.48 C819.41,101.48 825.46,107.98 825.1,119.18 L816.25,119.18 C817.87,109.88 814.62,104.1 808.75,104.1 C801.98,104.1 796.92,112.5 796.92,123.06 C796.92,135.16 803.15,143.83 811.46,143.83 C815.98,143.83 820.49,141.03 823.29,136.61 L825.01,138.06 C820.95,145.92 814.81,149.26 808.3,149.26 C797.37,149.26 789.25,139.51 789.25,126.14 L789.25,126.13 Z" id="Path"></path>
            <path d="M836.57,138.87 L836.57,106.09 L828.99,106.09 L828.99,103.83 L836.4,103.02 L842.54,89.29 L844.25,89.29 L844.25,102.65 L854.45,102.47 L856.17,102.47 L856.17,106.08 L844.25,106.08 L844.25,138.05 C844.25,141.93 845.24,144.1 848.22,144.1 C850.39,144.1 852.1,142.66 854.36,140.31 L855.17,139.41 L856.8,141.13 L856.08,142.03 C851.84,146.73 849.13,148.8 844.97,148.8 C839.37,148.8 836.57,145.1 836.57,138.87 Z" id="Path"></path>
            <path d="M860.86,125.32 C860.86,111.32 869.53,101.48 882.08,101.48 C894.63,101.48 902.49,111.32 902.49,125.32 C902.49,139.32 893.73,149.25 881.27,149.25 C868.81,149.25 860.86,139.41 860.86,125.32 Z M882.53,146.45 C889.66,146.45 894.18,138.78 894.18,127.04 C894.18,113.04 888.94,104.19 880.72,104.19 C873.59,104.19 869.16,111.96 869.16,123.61 C869.16,137.7 874.4,146.46 882.52,146.46 L882.53,146.45 Z" id="Shape" fill-rule="nonzero"></path>
            <path d="M907.36,146.18 L911.24,145.82 L912.87,144.47 L912.87,107.18 L906.73,105.92 L906.73,104.38 L919.19,102.21 L920.54,102.21 L920.09,110.07 L919.73,116.03 L920.27,116.03 L921.71,112.24 C924.51,105.2 928.84,102.22 934.53,102.22 L937.33,102.22 L937.33,110.08 L932.45,110.08 C927.66,110.08 924.96,111.34 922.52,115.5 L920.53,119.56 L920.53,144.48 L923.6,145.83 L930.91,146.19 L930.91,147.91 L907.34,147.91 L907.34,146.19 L907.36,146.18 Z" id="Path"></path>
            <path d="M942.85,159.64 L944.21,159.64 L955.23,159.91 C957.04,158.65 958.66,157.11 960.29,152.87 L962.37,147.45 L945.12,105.82 L940.97,104.37 L940.97,102.83 L961.65,102.83 L961.65,104.55 L954.15,105.54 L954.15,107.44 L965.98,137.6 L966.61,137.6 L978.26,107.44 L978.26,105.54 L972.21,104.55 L972.21,102.83 L986.12,102.83 L986.12,104.37 L982.6,105.82 L965.26,149.53 C960.65,161 953.97,165.97 944.22,165.97 L942.86,165.97 L942.86,159.65 L942.85,159.64 Z" id="Path"></path>
        </g>
    </g>
</svg>